<svg id="e5b424d5-4916-4fc7-8d2c-9000b8df4d83" data-name="2" xmlns="http://www.w3.org/2000/svg" viewBox="0 0 447.81 512"><defs><style>.a7fa5d86-9948-4621-98f3-36aa7790dd88{fill:#4b4b4b;}</style></defs><path class="a7fa5d86-9948-4621-98f3-36aa7790dd88" d="M257.78,144.63v60.21a7.14,7.14,0,0,1-7.31,7h-1.94a7.12,7.12,0,0,1-7.29-7V144.35c0-9.92-7-12.88-13.71-12.88s-13.71,3-13.71,12.88v60.49a7.15,7.15,0,0,1-7.31,7h-1.94a7.15,7.15,0,0,1-7.31-7V144.63c0-17.76-26.53-17.16-26.53.2v57.5c-.12,31.92,7.86,40.22,21.07,50.16,10.64,8,19.74,12.61,19.74,32.5V413h32V285c0-19.89,9.08-24.49,19.73-32.5,13.2-9.94,21.19-18.24,21.06-50.16v-57.5C284.31,127.47,257.78,126.87,257.78,144.63Z" transform="translate(-32.09)"/><path class="a7fa5d86-9948-4621-98f3-36aa7790dd88" d="M344.68,150.62c-6.8,18.17-19.54,62.57-19.54,85.12-1.77,54.23,27.46,25.16,28.19,67.64v110h31.82l.15.39V150.62C385.3,128.47,355.24,122.36,344.68,150.62Z" transform="translate(-32.09)"/><path class="a7fa5d86-9948-4621-98f3-36aa7790dd88" d="M475.33,35.48A58.27,58.27,0,0,0,454.28,9.93,58,58,0,0,0,421.77,0H90.23A58.05,58.05,0,0,0,32.09,58.1V453.9A58.08,58.08,0,0,0,57.7,502.07,58.14,58.14,0,0,0,90.23,512H421.77A58,58,0,0,0,470,486.39a57.93,57.93,0,0,0,10-32.49V58.1A58.18,58.18,0,0,0,475.33,35.48ZM108.19,481h-18a27.2,27.2,0,0,1-10.57-2.12,27.52,27.52,0,0,1-12-9.85A26.65,26.65,0,0,1,64.31,462a27.29,27.29,0,0,1-1.22-8.06V58.1a27.18,27.18,0,0,1,19-25.88A27.44,27.44,0,0,1,90.23,31h18V481Zm340.7-27.1a27,27,0,0,1-2.11,10.54,27.17,27.17,0,0,1-16.92,15.34,27.87,27.87,0,0,1-8.09,1.22H126V31H421.77a27.09,27.09,0,0,1,22.51,12A26.86,26.86,0,0,1,447.69,50a27.28,27.28,0,0,1,1.2,8.06V453.9Z" transform="translate(-32.09)"/></svg>